# xmcd CD database file
#
# Track frame offsets:
#	150
#	11845
#	21207
#	39225
#	52312
#	67595
#	82700
#	92082
#	109355
#	116397
#	128432
#	139150
#	146800
#	164882
#	177565
#	190380
#	200780
#	215860
#	235485
#	247562
#	261160
#	277545
#	288565
#
# Disc length: 4074 seconds
#
# Revision: 3
# Processed by: cddbd v1.5.2PL0 Copyright (c) Steve Scherf et al.
# Submitted via: CDex 1.51
#
DISCID=560fe817
DTITLE=Snooks Eaglin - Country Boy Down In New Orleans
DYEAR=1900
DGENRE=Blues
TTITLE0=Country Boy Down In New Orleans
TTITLE1=Mama Don't You Tear My Clothes
TTITLE2=I've Had My Fun
TTITLE3=Bottle Up And Go
TTITLE4=Give Me The Good Old Boxcar
TTITLE5=Walking Blues
TTITLE6=Possum Up A Simmon Tree
TTITLE7=That's All Right
TTITLE8=Veal Chop And Pork Chop
TTITLE9=Down By The Riverside
TTITLE10=Model T And The Train
TTITLE11=Jack O'Diamonds
TTITLE12=Death Valley Blues
TTITLE13=Rock Me Mama
TTITLE14=John Henry
TTITLE15=Locomotive Train
TTITLE16=I Had A Little Woman
TTITLE17=Rock Me Mama
TTITLE18=Mailman Passed
TTITLE19=Going Back To New Orleans
TTITLE20=Mardi Gras Mambo
TTITLE21=Bottle Up and Go
TTITLE22=This Train
EXTD=
EXTT0=
EXTT1=
EXTT2=
EXTT3=
EXTT4=
EXTT5=
EXTT6=
EXTT7=
EXTT8=
EXTT9=
EXTT10=
EXTT11=
EXTT12=
EXTT13=
EXTT14=
EXTT15=
EXTT16=
EXTT17=
EXTT18=
EXTT19=
EXTT20=
EXTT21=
EXTT22=
PLAYORDER=
